<svg width="337.1774169921875px" height="122.021240234375px" xmlns="http://www.w3.org/2000/svg" viewBox="81.41129150390626 13.9893798828125 337.1774169921875 122.021240234375" style="background: rgba(0, 0, 0, 0);" preserveAspectRatio="xMidYMid"><defs><filter id="editing-vr"><feFlood flood-color="#f00" flood-opacity="0.7" result="c1"></feFlood><feFlood flood-color="#00f" flood-opacity="0.7" result="c3"></feFlood><feComposite operator="in" in="c1" in2="SourceAlpha" result="text-c1"></feComposite><feComposite operator="in" in="c3" in2="SourceAlpha" result="text-c3"></feComposite><feOffset in="text-c1" dx="2" dy="2" result="text1"></feOffset><feOffset in="text-c3" dx="-2" dy="-2" result="text3"></feOffset><feBlend in="SourceGraphic" in2="text1" mode="multiply" result="text4"></feBlend><feBlend in="text4" in2="text3" mode="multiply"></feBlend></filter></defs><g filter="url(#editing-vr)"><g transform="translate(133.54749754071236, 98.9921875)"><path d="M0.45-0.32L0.45-0.32L8.51-42.24L8.51-42.24Q16.06-42.88 20.93-42.88L20.93-42.88L20.93-42.88Q25.79-42.88 28.93-42.46L28.93-42.46L28.93-42.46Q32.06-42.05 34.18-40.96L34.18-40.96L34.18-40.96Q38.40-38.91 38.40-33.28L38.40-33.28L38.40-33.28Q38.40-30.02 35.58-27.26L35.58-27.26L35.58-27.26Q32.96-24.77 30.08-24.19L30.08-24.19L30.08-24.19Q33.15-23.68 35.33-21.38L35.33-21.38L35.33-21.38Q37.63-18.94 37.63-15.17L37.63-15.17L37.63-15.17Q37.63-7.87 32.19-3.62L32.19-3.62L32.19-3.62Q26.75 0.64 16.06 0.64L16.06 0.64L16.06 0.64Q8.70 0.64 0.45-0.32ZM17.86-20.61L14.66-4.03L14.66-4.03Q15.23-3.97 15.36-3.97L15.36-3.97L15.94-3.97L15.94-3.97Q21.18-3.97 23.42-7.42L23.42-7.42L23.42-7.42Q25.09-10.11 25.09-15.04L25.09-15.04L25.09-15.04Q25.09-17.66 23.39-19.07L23.39-19.07L23.39-19.07Q21.70-20.48 17.86-20.61L17.86-20.61ZM27.58-33.22L27.58-33.22L27.58-33.22Q27.58-38.53 22.46-38.53L22.46-38.53L21.89-38.53L21.89-38.53Q21.63-38.53 21.25-38.46L21.25-38.46L18.69-24.96L19.33-24.96L19.33-24.96Q27.58-25.15 27.58-33.22ZM67.78-10.82L67.78-10.82L67.78-10.82Q69.38-9.73 69.38-7.33L69.38-7.33L69.38-7.33Q69.38-4.93 68.16-3.39L68.16-3.39L68.16-3.39Q66.94-1.86 64.96-0.83L64.96-0.83L64.96-0.83Q60.86 1.28 56.45 1.28L56.45 1.28L56.45 1.28Q52.03 1.28 49.44 0.32L49.44 0.32L49.44 0.32Q46.85-0.64 45.12-2.43L45.12-2.43L45.12-2.43Q41.73-5.82 41.73-12.03L41.73-12.03L41.73-12.03Q41.73-21.70 46.98-27.58L46.98-27.58L46.98-27.58Q52.61-33.92 62.40-33.92L62.40-33.92L62.40-33.92Q68.48-33.92 71.49-31.36L71.49-31.36L71.49-31.36Q73.73-29.44 73.73-26.30L73.73-26.30L73.73-26.30Q73.73-15.04 54.27-15.04L54.27-15.04L54.27-15.04Q54.02-13.38 54.02-11.97L54.02-11.97L54.02-11.97Q54.02-9.02 55.33-7.90L55.33-7.90L55.33-7.90Q56.64-6.78 59.07-6.78L59.07-6.78L59.07-6.78Q61.50-6.78 64.10-7.90L64.10-7.90L64.10-7.90Q66.69-9.02 67.78-10.82ZM54.72-17.79L54.72-17.79L54.72-17.79Q59.26-17.79 61.89-20.61L61.89-20.61L61.89-20.61Q64.51-23.30 64.51-27.58L64.51-27.58L64.51-27.58Q64.51-29.06 63.97-29.86L63.97-29.86L63.97-29.86Q63.42-30.66 62.34-30.66L62.34-30.66L62.34-30.66Q61.25-30.66 60.32-30.24L60.32-30.24L60.32-30.24Q59.39-29.82 58.43-28.42L58.43-28.42L58.43-28.42Q56.06-25.22 54.72-17.79ZM102.98 1.28L102.98 1.28L102.98 1.28Q95.23 1.28 95.23-4.74L95.23-4.74L95.23-4.74Q95.30-6.40 95.81-9.22L95.81-9.22L96.96-15.10L96.96-15.10Q98.69-23.42 98.69-25.28L98.69-25.28L98.69-25.28Q98.69-28.99 96.51-28.99L96.51-28.99L96.51-28.99Q92.86-28.99 90.94-19.46L90.94-19.46L87.17 0L74.30 1.28L80.96-32.70L91.46-33.92L90.43-27.65L90.43-27.65Q93.44-33.92 102.66-33.92L102.66-33.92L102.66-33.92Q107.14-33.92 109.02-32.03L109.02-32.03L109.02-32.03Q110.91-30.14 110.91-25.92L110.91-25.92L110.91-25.92Q110.91-21.95 108.86-12.67L108.86-12.67L108.86-12.67Q107.90-8.51 107.90-6.94L107.90-6.94L107.90-6.94Q107.90-5.38 108.77-4.48L108.77-4.48L108.77-4.48Q109.63-3.58 110.91-3.46L110.91-3.46L110.91-3.46Q110.27-1.28 108.06 0L108.06 0L108.06 0Q105.86 1.28 102.98 1.28ZM117.06-6.40L117.06-6.40L117.06-6.40Q117.06-8.13 117.95-12.48L117.95-12.48L121.34-29.76L117.57-29.76L117.82-31.68L117.82-31.68Q125.50-33.98 132.93-39.62L132.93-39.62L136-39.62L134.46-32.64L139.46-32.64L138.88-29.76L133.95-29.76L130.69-12.48L130.69-12.48Q129.86-8.51 129.86-7.17L129.86-7.17L129.86-7.17Q129.86-4.10 132.54-3.46L132.54-3.46L132.54-3.46Q131.90-1.28 129.60 0L129.60 0L129.60 0Q127.30 1.28 124.03 1.28L124.03 1.28L124.03 1.28Q120.77 1.28 118.91-0.77L118.91-0.77L118.91-0.77Q117.06-2.82 117.06-6.40ZM159.68-2.69L159.68-2.69L159.68-2.69Q156.61 1.28 148.99 1.28L148.99 1.28L148.99 1.28Q145.02 1.28 142.14-1.12L142.14-1.12L142.14-1.12Q139.26-3.52 139.26-6.98L139.26-6.98L139.26-6.98Q139.26-8.90 139.46-9.86L139.46-9.86L143.74-32.64L156.74-33.92L152.06-9.22L152.06-9.22Q151.81-7.81 151.81-6.98L151.81-6.98L151.81-6.98Q151.81-3.26 154.05-3.26L154.05-3.26L154.05-3.26Q156.54-3.26 158.34-6.66L158.34-6.66L158.34-6.66Q158.91-7.74 159.17-9.15L159.17-9.15L163.71-32.64L176.32-33.92L171.58-8.96L171.58-8.96Q171.39-8 171.39-6.98L171.39-6.98L171.39-6.98Q171.39-5.95 171.97-4.83L171.97-4.83L171.97-4.83Q172.54-3.71 174.40-3.46L174.40-3.46L174.40-3.46Q174.02-1.92 172.67-0.90L172.67-0.90L172.67-0.90Q169.86 1.28 166.82 1.28L166.82 1.28L166.82 1.28Q163.78 1.28 161.98 0.19L161.98 0.19L161.98 0.19Q160.19-0.90 159.68-2.69ZM199.81-17.98L199.81-17.98L199.81-17.98Q202.11-22.08 202.11-26.24L202.11-26.24L202.11-26.24Q202.11-28.99 200.13-28.99L200.13-28.99L200.13-28.99Q198.59-28.99 196.99-26.37L196.99-26.37L196.99-26.37Q195.33-23.74 194.82-20.35L194.82-20.35L191.49 0L178.24 1.28L184.77-32.64L195.33-33.92L194.18-27.46L194.18-27.46Q197.31-33.92 204.35-33.92L204.35-33.92L204.35-33.92Q208.06-33.92 210.08-32L210.08-32L210.08-32Q212.10-30.08 212.10-26.14L212.10-26.14L212.10-26.14Q212.10-22.21 209.50-19.71L209.50-19.71L209.50-19.71Q206.91-17.22 202.50-17.22L202.50-17.22L202.50-17.22Q200.58-17.22 199.81-17.98ZM228.48-3.52L228.48-3.52L228.48-3.52Q226.50 1.28 220.16 1.28L220.16 1.28L220.16 1.28Q216.90 1.28 214.85-0.96L214.85-0.96L214.85-0.96Q213.12-2.94 213.12-4.93L213.12-4.93L213.12-4.93Q213.12-10.11 215.49-20.22L215.49-20.22L217.86-32.64L230.85-33.92L226.94-13.70L226.94-13.70Q225.86-8.96 225.86-7.30L225.86-7.30L225.86-7.30Q225.86-3.65 228.48-3.52ZM219.01-41.54L219.01-41.54L219.01-41.54Q219.01-44.03 221.09-45.38L221.09-45.38L221.09-45.38Q223.17-46.72 226.18-46.72L226.18-46.72L226.18-46.72Q229.18-46.72 231.01-45.38L231.01-45.38L231.01-45.38Q232.83-44.03 232.83-41.54L232.83-41.54L232.83-41.54Q232.83-39.04 230.82-37.76L230.82-37.76L230.82-37.76Q228.80-36.48 225.79-36.48L225.79-36.48L225.79-36.48Q222.78-36.48 220.90-37.76L220.90-37.76L220.90-37.76Q219.01-39.04 219.01-41.54Z" fill="#444"></path></g></g><style>text {
  font-size: 70px;
  font-family: Arial Black;
  dominant-baseline: central;
  text-anchor: middle;
}</style></svg>